<?xml version="1.0" encoding="utf-8"?>
<!-- Generator: Adobe Illustrator 24.1.0, SVG Export Plug-In . SVG Version: 6.00 Build 0)  -->
<svg version="1.1" id="Layer_1" xmlns="http://www.w3.org/2000/svg" xmlns:xlink="http://www.w3.org/1999/xlink" x="0px" y="0px"
	 viewBox="0 0 66 66" style="enable-background:new 0 0 66 66;" xml:space="preserve">
<g>
	<g>
		<polygon points="37.8,35 36.5,38.1 39.1,38.1 		"/>
		<path d="M45,27.1c-11.7,0-20.4,8.5-20.4,18.2c0,4.1,1.6,8.1,4.4,11.3V65l9.4-2.5c2.1,0.7,4.4,1,6.6,1c11.3-0.1,20.5-8.2,20.5-18.2
			C65.5,35.2,56.3,27.1,45,27.1z M37.1,33.7h1.3l3.2,7h-1.4l-0.7-1.6H36l-0.7,1.6H34L37.1,33.7z M56.1,54.9H34v-2h22.1V54.9z
			 M56.1,49.9H34v-2h22.1V49.9z M56.1,44.9H34v-2h22.1V44.9z M56.1,39.9H42.2v-2h13.9V39.9z"/>
	</g>
	<g>
		<path d="M21.6,0.6C10,0.6,0.5,9.1,0.5,19.4c0,4.2,1.6,8.3,4.6,11.6v8.7l9.7-2.6c3,0.9,6.2,1.2,9.3,0.9c0.6-1.3,1.3-2.6,2.1-3.8
			c2.6-3.7,6.6-6.5,11.2-8c1.3-0.4,2.7-0.8,4.1-0.9c0.7-1.9,1.1-3.9,1.1-5.9C42.7,9.1,33.2,0.6,21.6,0.6z M16.6,27.2
			c-0.6,0-1.1-0.5-1.1-1.1S16,25,16.6,25s1.1,0.5,1.1,1.1S17.2,27.2,16.6,27.2z M21.6,27.2c-0.6,0-1.1-0.5-1.1-1.1S21,25,21.6,25
			s1.1,0.5,1.1,1.1S22.2,27.2,21.6,27.2z M22.1,23.4c-1,0-1.6-0.7-1.6-1.5s0.6-1.5,1.6-1.5c0.9,0,1.6,0.6,1.6,1.5
			C23.6,22.8,23,23.4,22.1,23.4z M23.7,17.5c-0.2,0.3-0.4,0.7-0.4,1.2h-2.5c0-0.7,0.2-1.3,0.5-1.8c1.2-1.7,2.8-2.2,2.8-3.7
			c0-1.3-1.2-1.8-2.5-1.8c-1.4,0-2.5,0.5-3.2,1.5l-1.9-1.2c1.3-1.7,3.2-2.4,5.3-2.4c2.5,0,4.8,1.1,4.8,3.6
			C26.7,15.4,24.7,16,23.7,17.5z M26.6,27.2c-1.5,0-1.5-2.2,0-2.2c0.6,0,1.1,0.5,1.1,1.1S27.2,27.2,26.6,27.2z"/>
	</g>
</g>
</svg>
